<svg xmlns="http://www.w3.org/2000/svg" viewBox="0 0 800 600">
  <defs>
    <filter id="shadow" x="-20%" y="-20%" width="140%" height="140%">
      <feDropShadow dx="0" dy="4" stdDeviation="10" flood-opacity="0.2"/>
    </filter>
    
    <linearGradient id="chart-gradient" x1="0%" y1="0%" x2="0%" y2="100%">
      <stop offset="0%" style="stop-color:#3498db;stop-opacity:0.8" />
      <stop offset="100%" style="stop-color:#3498db;stop-opacity:0.1" />
    </linearGradient>
  </defs>

  <!-- Main Dashboard Container -->
  <rect x="100" y="50" width="600" height="450" rx="15" fill="white" filter="url(#shadow)" />
  
  <!-- Left Side - Stock Levels -->
  <g transform="translate(120,80)">
    <text x="0" y="30" font-size="18" fill="#2c3e50" font-family="Arial">Stock Levels</text>
    
    <!-- Stock Bars -->
    <g transform="translate(0,50)">
      <!-- Product 1 -->
      <rect x="0" y="0" width="200" height="30" rx="5" fill="#f1f5f9" />
      <rect x="0" y="0" width="160" height="30" rx="5" fill="#3498db" />
      <text x="10" y="20" fill="white" font-size="14" font-family="Arial">Product A - 80%</text>
      
      <!-- Product 2 -->
      <rect x="0" y="40" width="200" height="30" rx="5" fill="#f1f5f9" />
      <rect x="0" y="40" width="130" height="30" rx="5" fill="#e74c3c" />
      <text x="10" y="60" fill="white" font-size="14" font-family="Arial">Product B - 65%</text>
      
      <!-- Product 3 -->
      <rect x="0" y="80" width="200" height="30" rx="5" fill="#f1f5f9" />
      <rect x="0" y="80" width="180" height="30" rx="5" fill="#2ecc71" />
      <text x="10" y="100" fill="white" font-size="14" font-family="Arial">Product C - 90%</text>
    </g>
    
    <!-- Reorder Alert -->
    <g transform="translate(0,200)">
      <rect width="240" height="80" rx="10" fill="#fff3cd" />
      <path d="M20,30 l10,-10 l10,10 M30,25 v25" stroke="#f39c12" stroke-width="3" fill="none" />
      <text x="50" y="35" fill="#f39c12" font-size="14" font-family="Arial">Reorder Alert</text>
      <text x="50" y="55" fill="#f39c12" font-size="12" font-family="Arial">Product B: Below threshold</text>
    </g>
  </g>
  
  <!-- Right Side - Warehouse Locations -->
  <g transform="translate(400,80)">
    <text x="0" y="30" font-size="18" fill="#2c3e50" font-family="Arial">Warehouse Locations</text>
    
    <!-- Location Icons -->
    <g class="floating-1">
      <!-- Warehouse 1 -->
      <rect x="0" y="50" width="120" height="100" rx="10" fill="#3498db" />
      <path d="M20,70 l40,30 l40,-30" stroke="white" stroke-width="3" fill="none" />
      <rect x="40" y="100" width="40" height="30" fill="white" />
      <text x="30" y="170" fill="#2c3e50" font-size="14" font-family="Arial">Main Storage</text>
    </g>
    
    <g class="floating-2">
      <!-- Warehouse 2 -->
      <rect x="150" y="50" width="120" height="100" rx="10" fill="#2ecc71" />
      <path d="M170,70 l40,30 l40,-30" stroke="white" stroke-width="3" fill="none" />
      <rect x="190" y="100" width="40" height="30" fill="white" />
      <text x="180" y="170" fill="#2c3e50" font-size="14" font-family="Arial">East Branch</text>
    </g>
    
    <!-- Stock Transfer Arrow -->
    <g class="floating-3" transform="translate(0,200)">
      <path d="M60,0 C140,0 150,0 210,0" stroke="#3498db" stroke-width="3" fill="none" />
      <circle cx="135" cy="0" r="20" fill="white" stroke="#3498db" stroke-width="2" />
      <text x="125" y="5" fill="#3498db" font-size="14" font-family="Arial">↔</text>
      <text x="90" y="30" fill="#2c3e50" font-size="12" font-family="Arial">Auto Stock Transfer</text>
    </g>
  </g>

  <!-- Animations -->
  <style>
    @keyframes float-1 {
      0% { transform: translateY(0px); }
      50% { transform: translateY(-10px); }
      100% { transform: translateY(0px); }
    }
    @keyframes float-2 {
      0% { transform: translateY(-10px); }
      50% { transform: translateY(0px); }
      100% { transform: translateY(-10px); }
    }
    @keyframes float-3 {
      0% { opacity: 0.7; }
      50% { opacity: 1; }
      100% { opacity: 0.7; }
    }
    .floating-1 {
      animation: float-1 4s ease-in-out infinite;
    }
    .floating-2 {
      animation: float-2 4s ease-in-out infinite;
    }
    .floating-3 {
      animation: float-3 2s ease-in-out infinite;
    }
  </style>
</svg>