<svg xmlns="http://www.w3.org/2000/svg" viewBox="0 0 800 600">
  <defs>
    <filter id="shadow" x="-20%" y="-20%" width="140%" height="140%">
      <feDropShadow dx="0" dy="4" stdDeviation="10" flood-opacity="0.2"/>
    </filter>
    
    <linearGradient id="notification-gradient" x1="0%" y1="0%" x2="100%" y2="100%">
      <stop offset="0%" style="stop-color:#3498db;stop-opacity:1" />
      <stop offset="100%" style="stop-color:#2980b9;stop-opacity:1" />
    </linearGradient>
  </defs>

  <!-- Main Container -->
  <rect x="100" y="50" width="600" height="450" rx="15" fill="white" filter="url(#shadow)" />
  
  <!-- Phone Frame -->
  <g transform="translate(150,100)">
    <rect width="200" height="350" rx="20" fill="#2c3e50" filter="url(#shadow)" />
    <rect x="10" y="10" width="180" height="330" rx="15" fill="white" />
    
    <!-- App Interface -->
    <g transform="translate(20,20)">
      <!-- Header -->
      <rect width="160" height="40" rx="8" fill="#f8f9fa" />
      <circle cx="20" cy="20" r="15" fill="#3498db" />
      <rect x="45" y="15" width="70" height="10" rx="2" fill="#2c3e50" />
      
      <!-- Content -->
      <g class="floating-1">
        <rect x="10" y="60" width="140" height="80" rx="8" fill="#f1f5f9" />
        <path d="M30,90 l40,30 l60,-50" stroke="#2ecc71" stroke-width="3" fill="none" />
      </g>
      
      <!-- Offline Indicator -->
      <g class="floating-2" transform="translate(10,160)">
        <rect width="140" height="40" rx="8" fill="#e8f4fd" />
        <text x="35" y="25" font-size="12" fill="#3498db" font-family="Arial">Offline Ready</text>
        <circle cx="20" cy="20" r="8" fill="#3498db" />
        <path d="M16,20 l8,0 M20,16 l0,8" stroke="white" stroke-width="2"/>
      </g>
      
      <!-- Install Prompt -->
      <g class="floating-3" transform="translate(10,220)">
        <rect width="140" height="60" rx="8" fill="#f1f5f9" />
        <text x="20" y="25" font-size="11" fill="#2c3e50" font-family="Arial">Add to Home Screen</text>
        <rect x="20" y="35" width="100" height="15" rx="8" fill="#2ecc71" />
        <text x="45" y="46" font-size="10" fill="white" font-family="Arial">Install App</text>
      </g>
    </g>
  </g>
  
  <!-- Notification Pop-up -->
  <g class="floating-4" transform="translate(400,150)">
    <rect width="250" height="80" rx="10" fill="url(#notification-gradient)" filter="url(#shadow)" />
    <text x="60" y="35" font-size="14" fill="white" font-family="Arial">New Order Received!</text>
    <text x="60" y="55" font-size="12" fill="white" opacity="0.8" font-family="Arial">Tap to view details</text>
    <circle cx="30" cy="40" r="15" fill="white" />
    <path d="M25,40 l10,0 M30,35 l0,10" stroke="#3498db" stroke-width="2"/>
  </g>
  
  <!-- Loading Speed Indicator -->
  <g transform="translate(400,280)">
    <rect width="250" height="120" rx="10" fill="#f8f9fa" filter="url(#shadow)" />
    <text x="20" y="30" font-size="14" fill="#2c3e50" font-family="Arial">Loading Speed</text>
    
    <!-- Speed Bars -->
    <g transform="translate(20,50)">
      <rect width="210" height="15" rx="8" fill="#e2e8f0" />
      <rect width="180" height="15" rx="8" fill="#2ecc71" class="loading-bar" />
      <text x="20" y="35" font-size="12" fill="#2c3e50" font-family="Arial">0.8s Average Load Time</text>
    </g>
  </g>

  <!-- Animations -->
  <style>
    @keyframes float-1 {
      0% { transform: translateY(0px); }
      50% { transform: translateY(-5px); }
      100% { transform: translateY(0px); }
    }
    @keyframes float-2 {
      0% { transform: translateY(-5px); }
      50% { transform: translateY(0px); }
      100% { transform: translateY(-5px); }
    }
    @keyframes float-3 {
      0% { transform: scale(1); }
      50% { transform: scale(1.02); }
      100% { transform: scale(1); }
    }
    @keyframes float-4 {
      0% { transform: translate(0,0); }
      50% { transform: translate(0,-10px); }
      100% { transform: translate(0,0); }
    }
    @keyframes loading {
      0% { width: 0; }
      100% { width: 180px; }
    }
    .floating-1 {
      animation: float-1 4s ease-in-out infinite;
    }
    .floating-2 {
      animation: float-2 4s ease-in-out infinite;
    }
    .floating-3 {
      animation: float-3 2s ease-in-out infinite;
    }
    .floating-4 {
      animation: float-4 3s ease-in-out infinite;
    }
    .loading-bar {
      animation: loading 2s ease-out forwards;
    }
  </style>
</svg>