<svg viewBox="0 0 800 600" xmlns="http://www.w3.org/2000/svg">
    <defs>
        <linearGradient id="device-gradient" x1="0%" y1="0%" x2="100%" y2="100%">
            <stop offset="0%" style="stop-color:#6366f1" />
            <stop offset="100%" style="stop-color:#2563eb" />
        </linearGradient>
        <linearGradient id="connection-gradient" x1="0%" y1="0%" x2="100%" y2="0%">
            <stop offset="0%" style="stop-color:#818cf8" />
            <stop offset="100%" style="stop-color:#60a5fa" />
        </linearGradient>
    </defs>

    <!-- Main Container -->
    <rect x="40" y="40" width="720" height="520" rx="16" fill="#ffffff" stroke="#e5e7eb" />

    <!-- Central Hub -->
    <circle cx="400" cy="300" r="80" fill="url(#device-gradient)" opacity="0.1" />
    <circle cx="400" cy="300" r="60" fill="url(#device-gradient)" opacity="0.2" />
    <circle cx="400" cy="300" r="40" fill="url(#device-gradient)" />

    <!-- Connected Devices -->
    <!-- Smartphone -->
    <g transform="translate(200,200)">
        <rect width="80" height="140" rx="12" fill="#f8fafc" stroke="#e5e7eb" />
        <rect x="10" y="10" width="60" height="100" rx="4" fill="#ffffff" />
        <circle cx="40" cy="120" r="8" fill="#e5e7eb" />
        <!-- Connection Line -->
        <path d="M 80 70 Q 200 70 360 100" 
              stroke="url(#connection-gradient)" 
              stroke-width="2" 
              stroke-dasharray="4 4" 
              fill="none" />
    </g>

    <!-- Tablet -->
    <g transform="translate(540,180)">
        <rect width="120" height="160" rx="12" fill="#f8fafc" stroke="#e5e7eb" />
        <rect x="10" y="10" width="100" height="120" rx="4" fill="#ffffff" />
        <circle cx="60" cy="140" r="8" fill="#e5e7eb" />
        <!-- Connection Line -->
        <path d="M 60 160 Q 60 200 -80 120" 
              stroke="url(#connection-gradient)" 
              stroke-width="2" 
              stroke-dasharray="4 4" 
              fill="none" />
    </g>

    <!-- Smart Lock -->
    <g transform="translate(180,400)">
        <rect width="100" height="100" rx="12" fill="#f8fafc" stroke="#e5e7eb" />
        <circle cx="50" cy="50" r="20" fill="url(#device-gradient)" />
        <rect x="45" y="40" width="10" height="20" fill="#ffffff" />
        <!-- Connection Line -->
        <path d="M 100 50 Q 200 50 220 -50" 
              stroke="url(#connection-gradient)" 
              stroke-width="2" 
              stroke-dasharray="4 4" 
              fill="none" />
    </g>

    <!-- Security Camera -->
    <g transform="translate(540,400)">
        <path d="M 20 0 L 100 0 L 100 60 L 20 60 L 0 30 L 20 0" 
              fill="#f8fafc" stroke="#e5e7eb" />
        <circle cx="60" cy="30" r="15" fill="url(#device-gradient)" />
        <!-- Connection Line -->
        <path d="M 60 0 Q 60 -50 -140 -100" 
              stroke="url(#connection-gradient)" 
              stroke-width="2" 
              stroke-dasharray="4 4" 
              fill="none" />
    </g>

    <!-- NFC/Bluetooth Indicators -->
    <g transform="translate(320,120)">
        <circle cx="0" cy="0" r="20" fill="url(#device-gradient)" opacity="0.2" />
        <circle cx="160" cy="0" r="20" fill="url(#device-gradient)" opacity="0.2" />
        <text x="-10" y="5" fill="#6366f1" font-size="12">NFC</text>
        <text x="145" y="5" fill="#6366f1" font-size="12">BLE</text>
    </g>

    <!-- Connection Waves -->
    <g transform="translate(400,300)" fill="none" stroke="url(#connection-gradient)">
        <circle cx="0" cy="0" r="100" stroke-width="1" opacity="0.2" />
        <circle cx="0" cy="0" r="150" stroke-width="1" opacity="0.1" />
        <circle cx="0" cy="0" r="200" stroke-width="1" opacity="0.05" />
    </g>
</svg>