<svg xmlns="http://www.w3.org/2000/svg" viewBox="0 0 800 600">
  <defs>
    <filter id="shadow" x="-20%" y="-20%" width="140%" height="140%">
      <feDropShadow dx="0" dy="4" stdDeviation="10" flood-opacity="0.2"/>
    </filter>
    
    <linearGradient id="map-gradient" x1="0%" y1="0%" x2="100%" y2="100%">
      <stop offset="0%" style="stop-color:#f8f9fa;stop-opacity:1" />
      <stop offset="100%" style="stop-color:#e9ecef;stop-opacity:1" />
    </linearGradient>
  </defs>

  <!-- Main Container -->
  <rect x="100" y="50" width="600" height="450" rx="15" fill="white" filter="url(#shadow)" />
  
  <!-- Map Area -->
  <g transform="translate(120,80)">
    <rect width="560" height="300" rx="10" fill="url(#map-gradient)" />
    
    <!-- Map Elements -->
    <path d="M50,150 C150,150 200,100 300,100 C400,100 450,200 550,200" 
          stroke="#e2e8f0" stroke-width="40" stroke-linecap="round" fill="none" />
    
    <!-- Delivery Route -->
    <path class="route-path" d="M50,150 C150,150 200,100 300,100 C400,100 450,200 550,200" 
          stroke="#3498db" stroke-width="4" stroke-linecap="round" stroke-dasharray="8,8" fill="none" />
    
    <!-- Location Points -->
    <g class="floating-1">
      <!-- Starting Point -->
      <circle cx="50" cy="150" r="15" fill="#2ecc71" />
      <circle cx="50" cy="150" r="8" fill="white" />
      
      <!-- Waypoint 1 -->
      <circle cx="300" cy="100" r="15" fill="#f1c40f" />
      <circle cx="300" cy="100" r="8" fill="white" />
      
      <!-- Destination -->
      <circle cx="550" cy="200" r="15" fill="#e74c3c" />
      <circle cx="550" cy="200" r="8" fill="white" />
    </g>
    
    <!-- Moving Delivery Icon -->
    <g class="moving-truck" transform="translate(180,120)">
      <circle cx="0" cy="0" r="20" fill="white" filter="url(#shadow)" />
      <path d="M-10,-5 h15 l5,5 l-5,5 h-15 v-10" fill="#3498db" />
    </g>
  </g>
  
  <!-- Status Timeline -->
  <g transform="translate(120,400)">
    <text x="0" y="0" font-size="18" fill="#2c3e50" font-family="Arial">Delivery Status</text>
    
    <!-- Timeline -->
    <g transform="translate(0,30)">
      <!-- Completed Steps -->
      <circle cx="20" cy="0" r="10" fill="#2ecc71" />
      <line x1="20" y1="0" x2="120" y2="0" stroke="#2ecc71" stroke-width="3" />
      <circle cx="120" cy="0" r="10" fill="#2ecc71" />
      <line x1="120" y1="0" x2="220" y2="0" stroke="#2ecc71" stroke-width="3" />
      
      <!-- Current Step -->
      <circle cx="220" cy="0" r="10" fill="#f1c40f" />
      <line x1="220" y1="0" x2="320" y2="0" stroke="#e2e8f0" stroke-width="3" />
      
      <!-- Pending Step -->
      <circle cx="320" cy="0" r="10" fill="#e2e8f0" />
      
      <!-- Status Labels -->
      <text x="20" y="30" fill="#2c3e50" font-size="12" text-anchor="middle" font-family="Arial">Picked Up</text>
      <text x="120" y="30" fill="#2c3e50" font-size="12" text-anchor="middle" font-family="Arial">In Transit</text>
      <text x="220" y="30" fill="#2c3e50" font-size="12" text-anchor="middle" font-family="Arial">Out for Delivery</text>
      <text x="320" y="30" fill="#2c3e50" font-size="12" text-anchor="middle" font-family="Arial">Delivered</text>
    </g>
  </g>

  <!-- Animations -->
  <style>
    @keyframes float-1 {
      0% { transform: translateY(0px); }
      50% { transform: translateY(-5px); }
      100% { transform: translateY(0px); }
    }
    @keyframes moveTruck {
      0% { transform: translate(180,120) rotate(0); }
      50% { transform: translate(420,150) rotate(30deg); }
      100% { transform: translate(180,120) rotate(0); }
    }
    @keyframes dashOffset {
      to {
        stroke-dashoffset: -200;
      }
    }
    .floating-1 {
      animation: float-1 3s ease-in-out infinite;
    }
    .moving-truck {
      animation: moveTruck 10s ease-in-out infinite;
    }
    .route-path {
      animation: dashOffset 20s linear infinite;
    }
  </style>
</svg>