<svg xmlns="http://www.w3.org/2000/svg" viewBox="0 0 800 600">
    <defs>
        <filter id="shadow" x="-20%" y="-20%" width="140%" height="140%">
            <feDropShadow dx="0" dy="4" stdDeviation="8" flood-opacity="0.15"/>
        </filter>

        <linearGradient id="area-gradient" x1="0%" y1="0%" x2="0%" y2="100%">
            <stop offset="0%" style="stop-color:#091C99;stop-opacity:0.2"/>
            <stop offset="100%" style="stop-color:#091C99;stop-opacity:0.05"/>
        </linearGradient>

        <linearGradient id="volume-gradient" x1="0%" y1="0%" x2="0%" y2="100%">
            <stop offset="0%" style="stop-color:#091C99;stop-opacity:0.3"/>
            <stop offset="100%" style="stop-color:#091C99;stop-opacity:0.1"/>
        </linearGradient>
    </defs>

    <!-- Main Container -->
    <rect x="50" y="50" width="700" height="500" rx="15" fill="white" filter="url(#shadow)"/>

    <!-- Header -->
    <g transform="translate(70,70)">
        <text fill="#091C99" font-size="18" font-family="Arial" font-weight="bold">Advanced Technical Analysis</text>
        <rect x="0" y="30" width="660" height="1" fill="#e2e8f0"/>
    </g>

    <!-- Main Chart Area -->
    <g transform="translate(70,120)">
        <!-- Price Chart -->
        <g>
            <path d="M0,200 L100,180 L200,190 L300,150 L400,160 L500,120 L600,140" fill="none" stroke="#091C99" stroke-width="2"/>

            <!-- Area fill under the line -->
            <path d="M0,200 L100,180 L200,190 L300,150 L400,160 L500,120 L600,140 L600,250 L0,250 Z" fill="url(#area-gradient)"/>

            <!-- Moving Averages -->
            <path d="M0,210 L100,200 L200,195 L300,170 L400,165 L500,140 L600,150" stroke="#2ecc71" stroke-width="1" stroke-dasharray="5,5" fill="none"/>
            <path d="M0,220 L100,215 L200,205 L300,190 L400,180 L500,160 L600,170" stroke="#e74c3c" stroke-width="1" stroke-dasharray="5,5" fill="none"/>
        </g>

        <!-- Technical Indicators -->
        <g transform="translate(0,280)">
            <!-- RSI -->
            <rect width="180" height="100" rx="8" fill="white" stroke="#091C99" stroke-width="1"/>
            <text x="10" y="25" fill="#091C99" font-size="12" font-family="Arial">RSI (14)</text>
            <path d="M10,50 L170,50" stroke="#e2e8f0" stroke-width="1" stroke-dasharray="2,2"/>
            <path d="M10,70 L170,70" stroke="#e2e8f0" stroke-width="1" stroke-dasharray="2,2"/>
            <path d="M10,60 L40,65 L70,55 L100,70 L130,65 L160,50" fill="none" stroke="#091C99" stroke-width="1.5"/>
        </g>

        <!-- MACD -->
        <g transform="translate(200,280)">
            <rect width="180" height="100" rx="8" fill="white" stroke="#091C99" stroke-width="1"/>
            <text x="10" y="25" fill="#091C99" font-size="12" font-family="Arial">MACD</text>
            <path d="M10,60 L40,55 L70,65 L100,50 L130,45 L160,60" fill="none" stroke="#091C99" stroke-width="1.5"/>
            <path d="M10,70 L40,65 L70,75 L100,60 L130,55 L160,70" fill="none" stroke="#2ecc71" stroke-width="1" stroke-dasharray="3,3"/>
        </g>

        <!-- Volume -->
        <g transform="translate(400,280)">
            <rect width="180" height="100" rx="8" fill="white" stroke="#091C99" stroke-width="1"/>
            <text x="10" y="25" fill="#091C99" font-size="12" font-family="Arial">Volume Analysis</text>
            <rect x="20" y="40" width="20" height="40" fill="url(#volume-gradient)"/>
            <rect x="50" y="50" width="20" height="30" fill="url(#volume-gradient)"/>
            <rect x="80" y="35" width="20" height="45" fill="url(#volume-gradient)"/>
            <rect x="110" y="45" width="20" height="35" fill="url(#volume-gradient)"/>
            <rect x="140" y="30" width="20" height="50" fill="url(#volume-gradient)"/>
        </g>
    </g>

    <!-- Pattern Recognition -->
    <g transform="translate(70,120)">
        <!-- Pattern Indicators -->
        <g class="floating-1">
            <circle cx="300" cy="150" r="15" fill="white" stroke="#091C99" stroke-width="2"/>
            <text x="295" y="155" fill="#091C99" font-size="14" font-family="Arial">P</text>
            <line x1="320" y1="150" x2="380" y2="150" stroke="#091C99" stroke-width="1" stroke-dasharray="2,2"/>
            <rect x="380" y="130" width="120" height="40" rx="5" fill="white" stroke="#091C99" stroke-width="1"/>
            <text x="390" y="155" fill="#091C99" font-size="12" font-family="Arial">Bull Flag Pattern</text>
        </g>
    </g>

    <!-- Time Controls -->
    <g transform="translate(70,520)">
        <rect width="660" height="1" fill="#e2e8f0"/>
        <g transform="translate(0,10)">
            <text x="0" y="15" fill="#2c3e50" font-size="12" font-family="Arial">1D</text>
            <text x="40" y="15" fill="#091C99" font-size="12" font-family="Arial">1W</text>
            <text x="80" y="15" fill="#2c3e50" font-size="12" font-family="Arial">1M</text>
            <text x="120" y="15" fill="#2c3e50" font-size="12" font-family="Arial">3M</text>
            <text x="160" y="15" fill="#2c3e50" font-size="12" font-family="Arial">1Y</text>
        </g>
    </g>

    <!-- Animation Styles -->
    <style>
    @keyframes float-1 {
      0% { transform: translateY(0px); }
      50% { transform: translateY(-5px); }
      100% { transform: translateY(0px); }
    }
    .floating-1 {
      animation: float-1 3s ease-in-out infinite;
    }
    </style>
</svg>