<svg xmlns="http://www.w3.org/2000/svg" viewBox="0 0 800 600">
  <!-- Previous elements remain the same until Market Depth section -->
  <defs>
    <filter id="shadow" x="-20%" y="-20%" width="140%" height="140%">
      <feDropShadow dx="0" dy="4" stdDeviation="8" flood-opacity="0.15"/>
    </filter>
    
    <linearGradient id="notification-gradient" x1="0%" y1="0%" x2="100%" y2="100%">
      <stop offset="0%" style="stop-color:#091C99;stop-opacity:1"/>
      <stop offset="100%" style="stop-color:#0A47E8;stop-opacity:1"/>
    </linearGradient>

    <linearGradient id="volume-gradient" x1="0%" y1="0%" x2="0%" y2="100%">
      <stop offset="0%" style="stop-color:#091C99;stop-opacity:0.2"/>
      <stop offset="100%" style="stop-color:#091C99;stop-opacity:0.05"/>
    </linearGradient>
  </defs>

  <!-- Main Container -->
  <rect x="50" y="50" width="700" height="500" rx="15" fill="white" filter="url(#shadow)"/>
  
  <!-- Previous sections remain unchanged -->
  <!-- Notification Section -->
  <g class="floating-1" transform="translate(80,80)">
    <rect width="300" height="120" rx="10" fill="url(#notification-gradient)" filter="url(#shadow)"/>
    <text x="20" y="40" fill="white" font-size="18" font-family="Arial">Trading Opportunity</text>
    <text x="20" y="70" fill="white" font-size="14" font-family="Arial">AAPL • Buy Signal</text>
    <text x="20" y="95" fill="white" font-size="12" font-family="Arial">Strong momentum detected</text>
    <circle cx="260" cy="35" r="15" fill="white"/>
    <path d="M255,35 l10,0 M260,30 l0,10" stroke="#091C99" stroke-width="2"/>
  </g>
  
  <!-- Analysis Cards -->
  <g transform="translate(80,230)">
    <rect width="200" height="150" rx="10" fill="white" stroke="#091C99" stroke-width="2"/>
    <text x="20" y="30" fill="#091C99" font-size="16" font-family="Arial">Technical Analysis</text>
    <line x1="20" y1="50" x2="180" y2="50" stroke="#091C99" stroke-width="1"/>
    <g transform="translate(20,80)">
      <circle cx="10" cy="-3" r="5" fill="#27ae60"/>
      <text x="30" y="0" fill="#2c3e50" font-size="12" font-family="Arial">RSI: Bullish</text>
      <circle cx="10" cy="26" r="5" fill="#27ae60"/>
      <text x="30" y="30" fill="#2c3e50" font-size="12" font-family="Arial">MACD: Positive</text>
      <circle cx="10" cy="50" r="5" fill="#27ae60"/>
      <text x="30" y="55" fill="#2c3e50" font-size="12" font-family="Arial">MA: Above 200d</text>
    </g>
  </g>
  
  <!-- Live Price Updates -->
  <g class="floating-2" transform="translate(420,80)">
    <rect width="250" height="300" rx="10" fill="white" stroke="#091C99" stroke-width="2"/>
    <text x="20" y="30" fill="#091C99" font-size="16" font-family="Arial">Live Market Data</text>
    <line x1="20" y1="50" x2="230" y2="50" stroke="#091C99" stroke-width="1"/>
    <g transform="translate(20,80)">
      <rect width="210" height="50" rx="5" fill="#f8f9fa"/>
      <text x="10" y="30" fill="#2c3e50" font-size="14" font-family="Arial">AAPL</text>
      <text x="120" y="30" fill="#27ae60" font-size="14" font-family="Arial">$156.25 ↑</text>
      <g transform="translate(0,60)">
        <rect width="210" height="50" rx="5" fill="#f8f9fa"/>
        <text x="10" y="30" fill="#2c3e50" font-size="14" font-family="Arial">MSFT</text>
        <text x="120" y="30" fill="#e74c3c" font-size="14" font-family="Arial">$285.10 ↓</text>
      </g>
      <g transform="translate(0,120)">
        <rect width="210" height="50" rx="5" fill="#f8f9fa"/>
        <text x="10" y="30" fill="#2c3e50" font-size="14" font-family="Arial">GOOGL</text>
        <text x="120" y="30" fill="#27ae60" font-size="14" font-family="Arial">$2750.15 ↑</text>
      </g>
    </g>
  </g>

  <!-- Market Depth - Fixed Version -->
  <g transform="translate(80,400)">
    <rect width="200" height="120" rx="10" fill="white" stroke="#091C99" stroke-width="2"/>
    <text x="20" y="30" fill="#091C99" font-size="14" font-family="Arial">Market Depth</text>
    
    <!-- Depth Chart - Adjusted to fit container -->
    <g transform="translate(20,45)">
      <!-- Buy pressure line -->
      <path d="M0,50 C40,40 80,35 140,15" stroke="#27ae60" stroke-width="2" fill="none"/>
      <!-- Sell pressure line -->
      <path d="M0,50 C40,60 80,65 140,70" stroke="#e74c3c" stroke-width="2" fill="none"/>
      <!-- Labels - Repositioned -->
      <text x="0" y="65" fill="#2c3e50" font-size="10" font-family="Arial">0</text>
      <text x="130" y="65" fill="#2c3e50" font-size="10" font-family="Arial">1000</text>
    </g>
  </g>

  <!-- Order Book -->
  <g transform="translate(300,400)">
    <rect width="200" height="120" rx="10" fill="white" stroke="#091C99" stroke-width="2"/>
    <text x="20" y="30" fill="#091C99" font-size="14" font-family="Arial">Order Book</text>
    <g transform="translate(20,45)">
      <text x="0" y="0" fill="#27ae60" font-size="12" font-family="Arial">156.30</text>
      <text x="60" y="0" fill="#27ae60" font-size="12" font-family="Arial">1,245</text>
      <text x="0" y="20" fill="#27ae60" font-size="12" font-family="Arial">156.25</text>
      <text x="60" y="20" fill="#27ae60" font-size="12" font-family="Arial">2,381</text>
      <text x="0" y="40" fill="#e74c3c" font-size="12" font-family="Arial">156.20</text>
      <text x="60" y="40" fill="#e74c3c" font-size="12" font-family="Arial">1,876</text>
      <text x="0" y="60" fill="#e74c3c" font-size="12" font-family="Arial">156.15</text>
      <text x="60" y="60" fill="#e74c3c" font-size="12" font-family="Arial">3,142</text>
    </g>
  </g>

  <!-- Volume Profile -->
  <g transform="translate(520,400)">
    <rect width="200" height="120" rx="10" fill="white" stroke="#091C99" stroke-width="2"/>
    <text x="20" y="30" fill="#091C99" font-size="14" font-family="Arial">Volume Profile</text>
    <g transform="translate(20,45)">
      <rect width="140" height="12" fill="url(#volume-gradient)"/>
      <rect width="100" height="12" y="15" fill="url(#volume-gradient)"/>
      <rect width="160" height="12" y="30" fill="url(#volume-gradient)"/>
      <rect width="80" height="12" y="45" fill="url(#volume-gradient)"/>
      <rect width="120" height="12" y="60" fill="url(#volume-gradient)"/>
    </g>
  </g>

  <!-- Animation Styles -->
  <style>
    @keyframes float-1 {
      0% { transform: translate(80px,80px); }
      50% { transform: translate(80px,70px); }
      100% { transform: translate(80px,80px); }
    }
    @keyframes float-2 {
      0% { transform: translate(420px,80px); }
      50% { transform: translate(420px,85px); }
      100% { transform: translate(420px,80px); }
    }
    .floating-1 {
      animation: float-1 3s ease-in-out infinite;
    }
    .floating-2 {
      animation: float-2 4s ease-in-out infinite;
    }
  </style>
</svg>