<svg viewBox="0 0 600 400"
    xmlns="http://www.w3.org/2000/svg">
    <defs>
        <linearGradient id="modernBg" x1="0%" y1="0%" x2="100%" y2="100%">
            <stop offset="0%" style="stop-color:#4158D0;stop-opacity:1" />
            <stop offset="50%" style="stop-color:#C850C0;stop-opacity:1" />
            <stop offset="100%" style="stop-color:#FFCC70;stop-opacity:1" />
        </linearGradient>
    </defs>

    <!-- Gradient Background -->
    <rect width="600" height="400" fill="url(#modernBg)" rx="8" opacity="0.1"/>

    <!-- Main Content Area -->
    <g transform="translate(50, 50)">
        <!-- Bar Chart -->
        <g fill="#6610f2" opacity="0.8">
            <rect x="50" y="200" width="40" height="100"/>
            <rect x="150" y="150" width="40" height="150"/>
            <rect x="250" y="100" width="40" height="200"/>
            <rect x="350" y="50" width="40" height="250"/>
            <rect x="450" y="0" width="40" height="300"/>
        </g>

        <!-- Line Graph -->
        <path d="M70,250 L170,200 L270,150 L370,100 L470,50" fill="none" stroke="#dc3545" stroke-width="3"/>

        <!-- Data Points -->
        <g fill="#dc3545">
            <circle cx="70" cy="250" r="5"/>
            <circle cx="170" cy="200" r="5"/>
            <circle cx="270" cy="150" r="5"/>
            <circle cx="370" cy="100" r="5"/>
            <circle cx="470" cy="50" r="5"/>
        </g>
    </g>

    <!-- Stats Cards -->
    <g fill="#ffffff" stroke="#dee2e6">
        <rect x="50" y="20" width="100" height="60" rx="4"/>
        <rect x="170" y="20" width="100" height="60" rx="4"/>
        <rect x="290" y="20" width="100" height="60" rx="4"/>
    </g>

    <!-- Trend Indicators -->
    <g fill="#198754">
        <path d="M80,50 l20,-20 l20,20"/>
        <path d="M200,50 l20,-20 l20,20"/>
        <path d="M320,50 l20,-20 l20,20"/>
    </g>

    <!-- Grid Lines -->
    <g stroke="#dee2e6" stroke-width="0.5" opacity="0.5">
        <line x1="50" y1="100" x2="550" y2="100"/>
        <line x1="50" y1="200" x2="550" y2="200"/>
        <line x1="50" y1="300" x2="550" y2="300"/>
    </g>
</svg>