<svg xmlns="http://www.w3.org/2000/svg" viewBox="0 0 240 40">
    <!-- PWA Icon -->
    <circle cx="20" cy="20" r="18" fill="#2563eb" opacity="0.1"/>
    <path d="M10 20 L20 10 L30 20 L20 30 Z" fill="#2563eb" stroke="#2563eb" stroke-width="2"/>
    
    <!-- Automation Icon -->
    <circle cx="60" cy="20" r="18" fill="#f59e0b" opacity="0.1"/>
    <path d="M50 20 C50 15, 55 10, 60 10 C65 10, 70 15, 70 20 C70 25, 65 30, 60 30 C55 30, 50 25, 50 20" 
          fill="none" stroke="#f59e0b" stroke-width="2"/>
    <circle cx="60" cy="20" r="4" fill="#f59e0b"/>
    
    <!-- Website Icon -->
    <circle cx="100" cy="20" r="18" fill="#10b981" opacity="0.1"/>
    <rect x="90" y="12" width="20" height="16" fill="none" stroke="#10b981" stroke-width="2" rx="2"/>
    <line x1="90" y1="16" x2="110" y2="16" stroke="#10b981" stroke-width="2"/>
    
    <!-- Landing Page Icon -->
    <circle cx="140" cy="20" r="18" fill="#6366f1" opacity="0.1"/>
    <path d="M130 25 L140 12 L150 25" fill="none" stroke="#6366f1" stroke-width="2"/>
    <line x1="135" y1="28" x2="145" y2="28" stroke="#6366f1" stroke-width="2"/>
    
    <!-- Corporate Identity Icon -->
    <circle cx="180" cy="20" r="18" fill="#ec4899" opacity="0.1"/>
    <path d="M170 15 L180 15 L190 15 M175 20 L185 20 M172 25 L188 25" 
          stroke="#ec4899" stroke-width="2" fill="none"/>
    
    <!-- Strategy Icon -->
    <circle cx="220" cy="20" r="18" fill="#8b5cf6" opacity="0.1"/>
    <path d="M210 25 L220 15 L230 25" fill="none" stroke="#8b5cf6" stroke-width="2"/>
    <circle cx="220" cy="15" r="2" fill="#8b5cf6"/>
</svg>