<svg xmlns="http://www.w3.org/2000/svg" viewBox="0 0 1920 600">
  <!-- Background gradient -->
  <defs>
    <linearGradient id="bg-gradient" x1="0%" y1="0%" x2="100%" y2="100%">
      <stop offset="0%" style="stop-color:#0B2447;stop-opacity:1" />
      <stop offset="100%" style="stop-color:#19376D;stop-opacity:1" />
    </linearGradient>

    <!-- Pattern for dots -->
    <pattern id="dots" x="0" y="0" width="40" height="40" patternUnits="userSpaceOnUse">
      <circle cx="20" cy="20" r="1.5" fill="#ffffff" fill-opacity="0.1"/>
    </pattern>

    <!-- Curved lines -->
    <path id="curve1" d="M0,100 Q480,0 960,100 T1920,100" />
    <path id="curve2" d="M0,200 Q480,300 960,200 T1920,200" />
  </defs>

  <!-- Main background -->
  <rect width="100%" height="100%" fill="url(#bg-gradient)" />

  <!-- Dot pattern overlay -->
  <rect width="100%" height="100%" fill="url(#dots)" />

  <!-- Abstract shapes -->
  <g opacity="0.1">
    <!-- Flowing lines -->
    <path d="M0,150 Q480,50 960,150 T1920,150" fill="none" stroke="#ffffff" stroke-width="2"/>
    <path d="M0,250 Q480,350 960,250 T1920,250" fill="none" stroke="#ffffff" stroke-width="2"/>

    <!-- Geometric elements -->
    <circle cx="200" cy="300" r="80" fill="#ffffff" opacity="0.05"/>
    <circle cx="1720" cy="200" r="100" fill="#ffffff" opacity="0.05"/>

    <!-- Data visualization inspired elements -->
    <g transform="translate(1500,400)">
      <rect x="0" y="0" width="20" height="60" fill="#ffffff"/>
      <rect x="30" y="20" width="20" height="40" fill="#ffffff"/>
      <rect x="60" y="10" width="20" height="50" fill="#ffffff"/>
      <rect x="90" y="30" width="20" height="30" fill="#ffffff"/>
    </g>
  </g>

  <!-- Subtle highlight accents -->
  <g opacity="0.15">
    <path d="M1600,0 L1800,0 L1700,100 Z" fill="#ffffff"/>
    <path d="M100,500 L300,500 L200,400 Z" fill="#ffffff"/>
  </g>
</svg>