<svg xmlns="http://www.w3.org/2000/svg" viewBox="0 0 600 400">
    <defs>
        <linearGradient id="maintGradient" x1="0%" y1="0%" x2="100%" y2="100%">
            <stop offset="0%" style="stop-color:#2E1760;stop-opacity:1" />
            <stop offset="100%" style="stop-color:#4C2A85;stop-opacity:1" />
        </linearGradient>
    </defs>

    <!-- Background -->
    <rect width="600" height="400" fill="url(#maintGradient)"/>

    <!-- Dashboard interface -->
    <rect x="100" y="50" width="400" height="300" rx="10" fill="#ffffff" opacity="0.9"/>

    <!-- Graphs and charts -->
    <g transform="translate(120,80)">
        <!-- Line graph -->
        <path d="M0,200 L60,180 L120,190 L180,150 L240,140 L300,130" fill="none" stroke="#2E1760" stroke-width="3"/>
        <circle cx="180" cy="150" r="5" fill="#2E1760"/>

        <!-- Warning indicator -->
        <g transform="translate(320,70)">
            <path d="M20,0 L40,35 L0,35 Z" fill="#FF6B6B"/>
            <circle cx="20" cy="25" r="2" fill="#ffffff"/>
            <rect x="18" y="15" width="4" height="8" fill="#ffffff"/>
        </g>

        <!-- Status bars -->
        <g transform="translate(30,100)">
            <rect x="0" y="0" width="150" height="10" rx="5" fill="#E8E8E8"/>
            <rect x="0" y="0" width="120" height="10" rx="5" fill="#2E1760"/>
            <rect x="0" y="20" width="150" height="10" rx="5" fill="#E8E8E8"/>
            <rect x="0" y="20" width="90" height="10" rx="5" fill="#2E1760"/>
        </g>
    </g>
</svg>