<svg xmlns="http://www.w3.org/2000/svg" viewBox="0 0 1920 600">
  <defs>
    <!-- Main gradient -->
    <linearGradient id="bgGradient" x1="0%" y1="0%" x2="100%" y2="100%">
      <stop offset="0%" style="stop-color:#1A1A3B;stop-opacity:1" />
      <stop offset="100%" style="stop-color:#2E1760;stop-opacity:1" />
    </linearGradient>

    <!-- Neural network pattern -->
    <pattern id="neuralPattern" x="0" y="0" width="100" height="100" patternUnits="userSpaceOnUse">
      <circle cx="50" cy="50" r="2" fill="#ffffff" opacity="0.3"/>
      <circle cx="0" cy="0" r="2" fill="#ffffff" opacity="0.3"/>
      <circle cx="100" cy="100" r="2" fill="#ffffff" opacity="0.3"/>
      <line x1="50" y1="50" x2="0" y2="0" stroke="#ffffff" stroke-width="0.5" opacity="0.1"/>
      <line x1="50" y1="50" x2="100" y2="100" stroke="#ffffff" stroke-width="0.5" opacity="0.1"/>
    </pattern>

    <!-- Circuit board lines -->
    <pattern id="circuitPattern" x="0" y="0" width="150" height="150" patternUnits="userSpaceOnUse">
      <path d="M0 75h150 M75 0v150" stroke="#ffffff" stroke-width="0.5" opacity="0.1"/>
      <circle cx="75" cy="75" r="3" fill="#ffffff" opacity="0.2"/>
    </pattern>
  </defs>

  <!-- Base background -->
  <rect width="100%" height="100%" fill="url(#bgGradient)"/>

  <!-- Neural network overlay -->
  <rect width="100%" height="100%" fill="url(#neuralPattern)"/>

  <!-- Circuit pattern overlay -->
  <rect width="100%" height="100%" fill="url(#circuitPattern)"/>

  <!-- Abstract AI brain representation -->
  <g transform="translate(1400,300)" opacity="0.15">
    <path d="M0,0 C50,-50 100,-50 150,0 S250,50 300,0" fill="none" stroke="#ffffff" stroke-width="2"/>
    <circle cx="150" cy="0" r="50" fill="none" stroke="#ffffff" stroke-width="2"/>
  </g>

  <!-- Floating data points -->
  <g opacity="0.2">
    <circle cx="200" cy="150" r="3" fill="#ffffff">
      <animate attributeName="opacity" values="0.2;0.5;0.2" dur="3s" repeatCount="indefinite"/>
    </circle>
    <circle cx="400" cy="300" r="3" fill="#ffffff">
      <animate attributeName="opacity" values="0.2;0.5;0.2" dur="4s" repeatCount="indefinite"/>
    </circle>
    <circle cx="600" cy="200" r="3" fill="#ffffff">
      <animate attributeName="opacity" values="0.2;0.5;0.2" dur="3.5s" repeatCount="indefinite"/>
    </circle>
  </g>
</svg>