<svg xmlns="http://www.w3.org/2000/svg" viewBox="0 0 600 400">
    <!-- Background with gradient -->
    <defs>
        <linearGradient id="bgGrad" x1="0%" y1="0%" x2="100%" y2="100%">
            <stop offset="0%" style="stop-color:#2E1760;stop-opacity:1"/>
            <stop offset="100%" style="stop-color:#4C2A85;stop-opacity:1"/>
        </linearGradient>

        <!-- Neural pattern for AI visual -->
        <pattern id="neuralPattern" x="0" y="0" width="50" height="50" patternUnits="userSpaceOnUse">
            <circle cx="25" cy="25" r="1" fill="#4263eb" opacity="0.3"/>
            <circle cx="0" cy="0" r="1" fill="#4263eb" opacity="0.3"/>
            <line x1="25" y1="25" x2="0" y2="0" stroke="#4263eb" stroke-width="0.5" opacity="0.1"/>
        </pattern>
    </defs>

    <!-- Main background -->
    <rect width="600" height="400" fill="url(#bgGrad)"/>

    <!-- Chat interface container -->
    <rect x="100" y="50" width="400" height="300" rx="10" fill="white" stroke="#dee2e6" stroke-width="1"/>

    <!-- Header -->
    <rect x="100" y="50" width="400" height="50" rx="10" fill="#4C2A85"/>
    <circle cx="130" cy="75" r="15" fill="white"/>
    <text x="160" y="80" font-family="Arial" font-size="14" fill="white" font-weight="bold">AI Assistant</text>
    <circle cx="460" cy="75" r="3" fill="white"/>
    <circle cx="475" cy="75" r="3" fill="white"/>
    <circle cx="490" cy="75" r="3" fill="white"/>

    <!-- Chat messages -->
    <!-- User message 1 -->
    <rect x="280" y="120" width="200" height="40" rx="20" fill="#e7f5ff"/>
    <text x="300" y="143" font-family="Arial" font-size="12" fill="#495057">How can you help my business?</text>

    <!-- AI response 1 -->
    <rect x="120" y="170" width="240" height="50" rx="20" fill="#4263eb"/>
    <text x="140" y="193" font-family="Arial" font-size="12" fill="white">I can assist with customer service,</text>
    <text x="140" y="208" font-family="Arial" font-size="12" fill="white">data analysis, and automation tasks.</text>

    <!-- User message 2 -->
    <rect x="280" y="230" width="200" height="40" rx="20" fill="#e7f5ff"/>
    <text x="300" y="253" font-family="Arial" font-size="12" fill="#495057">That sounds great!</text>

    <!-- Typing indicator -->
    <g transform="translate(120,290)">
        <circle cx="0" cy="0" r="4" fill="#4263eb">
            <animate attributeName="opacity" values="1;0.2;1" dur="1.4s" repeatCount="indefinite"/>
        </circle>
        <circle cx="15" cy="0" r="4" fill="#4263eb">
            <animate attributeName="opacity" values="1;0.2;1" dur="1.4s" repeatCount="indefinite" begin="0.2s"/>
        </circle>
        <circle cx="30" cy="0" r="4" fill="#4263eb">
            <animate attributeName="opacity" values="1;0.2;1" dur="1.4s" repeatCount="indefinite" begin="0.4s"/>
        </circle>
    </g>

    <!-- Neural network pattern overlay in corner -->
    <rect x="450" y="300" width="50" height="50" fill="url(#neuralPattern)" opacity="0.5"/>

    <!-- Bottom input area -->
    <rect x="120" y="320" width="360" height="10" rx="5" fill="#e9ecef"/>
</svg>