<?xml version="1.0" standalone="no"?>
<!DOCTYPE svg PUBLIC "-//W3C//DTD SVG 20010904//EN"
 "http://www.w3.org/TR/2001/REC-SVG-20010904/DTD/svg10.dtd">
<svg version="1.0" xmlns="http://www.w3.org/2000/svg"
 width="270.000000pt" height="270.000000pt" viewBox="0 0 270.000000 270.000000"
 preserveAspectRatio="xMidYMid meet">
<g transform="translate(0.000000,270.000000) scale(0.100000,-0.100000)"
fill="#1f009f" stroke="#1f009f">
    <circle cx="1400" cy="1480" r="1180" fill="white"/>
    <path d="M1114 2655 c-543 -98 -975 -531 -1069 -1072 -20 -112 -20 -354 0
    -466 25 -144 80 -297 153 -422 196 -341 539 -584 917 -650 114 -20 355 -20
    468 0 350 61 672 272 868 569 155 234 219 450 219 736 0 253 -51 453 -168 655
    -198 344 -536 583 -919 650 -105 18 -368 19 -469 0z m531 -125 c109 -28 282
    -115 386 -194 257 -195 445 -500 467 -759 37 -431 -199 -842 -592 -1032 -192
    -93 -419 -133 -589 -103 -191 32 -372 132 -529 290 -257 259 -394 617 -359
    933 48 427 305 736 706 850 173 49 357 54 510 15z"/>
    <path d="M1638 2159 c-36 -21 -106 -142 -259 -449 -157 -315 -224 -431 -260
    -450 -36 -20 -58 4 -199 205 -164 234 -233 280 -340 225 -47 -24 -65 -47 -29
    -36 13 4 49 10 79 13 l56 5 46 -50 c58 -65 109 -165 218 -422 107 -254 128
    -294 158 -298 56 -8 129 113 262 438 139 339 220 480 277 480 33 0 57 -37 161
    -250 106 -217 155 -290 249 -366 28 -23 76 -51 106 -62 63 -24 172 -41 147
    -23 -8 6 -26 11 -40 11 -43 1 -109 38 -160 90 -93 95 -155 233 -251 552 -74
    250 -105 332 -140 369 -28 30 -52 35 -81 18z"/>
</g>
</svg>
