<svg xmlns="http://www.w3.org/2000/svg" viewBox="0 0 800 600">
  <defs>
    <linearGradient id="bg-gradient" x1="0%" y1="0%" x2="100%" y2="100%">
      <stop offset="0%" style="stop-color:#2c3e50;stop-opacity:1" />
      <stop offset="100%" style="stop-color:#3498db;stop-opacity:1" />
    </linearGradient>
    
    <filter id="shadow" x="-20%" y="-20%" width="140%" height="140%">
      <feDropShadow dx="0" dy="4" stdDeviation="10" flood-opacity="0.2"/>
    </filter>
    
    <linearGradient id="card-gradient" x1="0%" y1="0%" x2="0%" y2="100%">
      <stop offset="0%" style="stop-color:#ffffff;stop-opacity:1" />
      <stop offset="100%" style="stop-color:#f8f9fa;stop-opacity:1" />
    </linearGradient>
  </defs>

  <!-- Main store interface container -->
  <rect x="100" y="50" width="600" height="450" rx="15" fill="white" filter="url(#shadow)" />
  
  <!-- Top navigation bar -->
  <rect x="100" y="50" width="600" height="70" rx="15" fill="#f8f9fa" />
  <circle cx="140" cy="85" r="15" fill="#3498db" />
  <rect x="170" y="75" width="80" height="20" rx="5" fill="#e2e8f0" />
  <rect x="500" y="75" width="60" height="20" rx="5" fill="#e2e8f0" />
  <rect x="580" y="75" width="60" height="20" rx="5" fill="#e2e8f0" />
  
  <!-- Product grid -->
  <g transform="translate(120,140)">
    <!-- Product Card 1 -->
    <rect width="180" height="220" rx="10" fill="url(#card-gradient)" stroke="#e2e8f0" stroke-width="1" />
    <rect x="15" y="15" width="150" height="120" rx="8" fill="#f1f5f9" />
    <rect x="15" y="150" width="120" height="15" rx="3" fill="#64748b" />
    <rect x="15" y="175" width="80" height="15" rx="3" fill="#94a3b8" />
    <rect x="15" y="200" width="60" height="15" rx="3" fill="#2ecc71" />
  </g>
  
  <g transform="translate(320,140)">
    <!-- Product Card 2 -->
    <rect width="180" height="220" rx="10" fill="url(#card-gradient)" stroke="#e2e8f0" stroke-width="1" />
    <rect x="15" y="15" width="150" height="120" rx="8" fill="#f1f5f9" />
    <rect x="15" y="150" width="120" height="15" rx="3" fill="#64748b" />
    <rect x="15" y="175" width="80" height="15" rx="3" fill="#94a3b8" />
    <rect x="15" y="200" width="60" height="15" rx="3" fill="#2ecc71" />
  </g>
  
  <g transform="translate(520,140)">
    <!-- Product Card 3 -->
    <rect width="180" height="220" rx="10" fill="url(#card-gradient)" stroke="#e2e8f0" stroke-width="1" />
    <rect x="15" y="15" width="150" height="120" rx="8" fill="#f1f5f9" />
    <rect x="15" y="150" width="120" height="15" rx="3" fill="#64748b" />
    <rect x="15" y="175" width="80" height="15" rx="3" fill="#94a3b8" />
    <rect x="15" y="200" width="60" height="15" rx="3" fill="#2ecc71" />
  </g>

  <!-- Customization indicators with absolute positioning -->
  <g class="floating">
    <circle cx="65" cy="250" r="25" fill="#2ecc71" filter="url(#shadow)" />
    <g transform="translate(65, 250)">
      <line x1="-8" y1="0" x2="8" y2="0" stroke="white" stroke-width="3" stroke-linecap="round" />
      <line x1="0" y1="-8" x2="0" y2="8" stroke="white" stroke-width="3" stroke-linecap="round" />
    </g>
  </g>
  
  <g class="floating">
    <circle cx="735" cy="350" r="25" fill="#3498db" filter="url(#shadow)" />
    <g transform="translate(735, 350)">
      <line x1="-8" y1="0" x2="8" y2="0" stroke="white" stroke-width="3" stroke-linecap="round" />
      <line x1="0" y1="-8" x2="0" y2="8" stroke="white" stroke-width="3" stroke-linecap="round" />
    </g>
  </g>

  <!-- Animation -->
  <style>
    @keyframes float {
      0% { transform: translateY(0px); }
      50% { transform: translateY(-10px); }
      100% { transform: translateY(0px); }
    }
    .floating {
      animation: float 3s ease-in-out infinite;
    }
  </style>
</svg>