<svg xmlns="http://www.w3.org/2000/svg" viewBox="0 0 800 600">
  <defs>
    <filter id="shadow" x="-20%" y="-20%" width="140%" height="140%">
      <feDropShadow dx="0" dy="4" stdDeviation="8" flood-opacity="0.15"/>
    </filter>
    
    <linearGradient id="performance-gradient" x1="0%" y1="0%" x2="0%" y2="100%">
      <stop offset="0%" style="stop-color:#091C99;stop-opacity:0.2"/>
      <stop offset="100%" style="stop-color:#091C99;stop-opacity:0.05"/>
    </linearGradient>

    <linearGradient id="alert-gradient" x1="0%" y1="0%" x2="100%" y2="100%">
      <stop offset="0%" style="stop-color:#091C99;stop-opacity:1"/>
      <stop offset="100%" style="stop-color:#0A47E8;stop-opacity:1"/>
    </linearGradient>
  </defs>

  <!-- Main Container -->
  <rect x="50" y="50" width="700" height="500" rx="15" fill="white" filter="url(#shadow)"/>
  
  <!-- Header -->
  <g transform="translate(70,70)">
    <text fill="#091C99" font-size="18" font-family="Arial" font-weight="bold">Portfolio Overview</text>
    <rect x="0" y="30" width="660" height="1" fill="#e2e8f0"/>
  </g>
  
  <!-- Portfolio Value -->
  <g transform="translate(70,120)">
    <text fill="#2c3e50" font-size="14" font-family="Arial">Total Portfolio Value</text>
    <text x="0" y="30" fill="#091C99" font-size="24" font-family="Arial" font-weight="bold">$1,247,582.43</text>
    <text x="200" y="30" fill="#27ae60" font-size="14" font-family="Arial">+2.4% today</text>
  </g>
  
  <!-- Asset Allocation -->
  <g transform="translate(70,180)">
    <rect width="320" height="200" rx="10" fill="white" stroke="#091C99" stroke-width="1"/>
    <text x="20" y="30" fill="#091C99" font-size="14" font-family="Arial">Asset Allocation</text>
    
    <!-- Donut Chart -->
    <g transform="translate(230,100)">
      <!-- Donut segments -->
      <path d="M0,0 L50,0 A50,50 0 0,1 25,43.3 L0,0" fill="#091C99"/>
      <path d="M0,0 L25,43.3 A50,50 0 0,1 -25,43.3 L0,0" fill="#27ae60"/>
      <path d="M0,0 L-25,43.3 A50,50 0 0,1 -50,0 L0,0" fill="#e74c3c"/>
      <path d="M0,0 L-50,0 A50,50 0 0,1 50,0 L0,0" fill="#f1c40f"/>
      
      <!-- Center hole -->
      <circle cx="0" cy="0" r="30" fill="white"/>
    </g>
    
    <!-- Legend -->
    <g transform="translate(20,60)">
      <circle cx="10" cy="0" r="5" fill="#091C99"/>
      <text x="25" y="5" fill="#2c3e50" font-size="12" font-family="Arial">Stocks (40%)</text>
      
      <circle cx="10" cy="25" r="5" fill="#27ae60"/>
      <text x="25" y="30" fill="#2c3e50" font-size="12" font-family="Arial">Bonds (25%)</text>
      
      <circle cx="10" cy="50" r="5" fill="#e74c3c"/>
      <text x="25" y="55" fill="#2c3e50" font-size="12" font-family="Arial">Real Estate (20%)</text>
      
      <circle cx="10" cy="75" r="5" fill="#f1c40f"/>
      <text x="25" y="80" fill="#2c3e50" font-size="12" font-family="Arial">Cash (15%)</text>
    </g>
  </g>
  
  <!-- Performance Chart -->
  <g transform="translate(410,180)">
    <rect width="320" height="200" rx="10" fill="white" stroke="#091C99" stroke-width="1"/>
    <text x="20" y="30" fill="#091C99" font-size="14" font-family="Arial">Performance History</text>
    
    <!-- Chart -->
    <g transform="translate(20,50)">
      <!-- Grid lines -->
      <line x1="0" y1="30" x2="280" y2="30" stroke="#e2e8f0" stroke-width="1" stroke-dasharray="2,2"/>
      <line x1="0" y1="70" x2="280" y2="70" stroke="#e2e8f0" stroke-width="1" stroke-dasharray="2,2"/>
      <line x1="0" y1="110" x2="280" y2="110" stroke="#e2e8f0" stroke-width="1" stroke-dasharray="2,2"/>
      
      <!-- Performance line -->
      <path d="M0,100 L40,90 L80,95 L120,70 L160,75 L200,50 L240,45 L280,30" 
            fill="none" stroke="#091C99" stroke-width="2"/>
      
      <!-- Area fill -->
      <path d="M0,100 L40,90 L80,95 L120,70 L160,75 L200,50 L240,45 L280,30 L280,130 L0,130 Z" 
            fill="url(#performance-gradient)"/>
            
      <!-- Time labels -->
      <text x="0" y="145" fill="#2c3e50" font-size="10" font-family="Arial">Jan</text>
      <text x="140" y="145" fill="#2c3e50" font-size="10" font-family="Arial">Jun</text>
      <text x="270" y="145" fill="#2c3e50" font-size="10" font-family="Arial">Dec</text>
    </g>
  </g>
  
  <!-- Risk Analysis -->
  <g transform="translate(70,400)">
    <rect width="320" height="130" rx="10" fill="white" stroke="#091C99" stroke-width="1"/>
    <text x="20" y="30" fill="#091C99" font-size="14" font-family="Arial">Risk Metrics</text>
    
    <!-- Risk Indicators -->
    <g transform="translate(20,50)">
      <rect width="130" height="60" rx="5" fill="#f8f9fa"/>
      <text x="10" y="25" fill="#2c3e50" font-size="12" font-family="Arial">Portfolio Beta</text>
      <text x="10" y="45" fill="#091C99" font-size="16" font-family="Arial">0.85</text>
    </g>
    
    <g transform="translate(170,50)">
      <rect width="130" height="60" rx="5" fill="#f8f9fa"/>
      <text x="10" y="25" fill="#2c3e50" font-size="12" font-family="Arial">Sharpe Ratio</text>
      <text x="10" y="45" fill="#091C99" font-size="16" font-family="Arial">1.92</text>
    </g>
  </g>
  
  <!-- Alerts and Notifications -->
  <g transform="translate(410,400)">
    <rect width="320" height="130" rx="10" fill="white" stroke="#091C99" stroke-width="1"/>
    <text x="20" y="30" fill="#091C99" font-size="14" font-family="Arial">Alerts</text>
    
    <!-- Alert Items -->
    <g transform="translate(20,45)">
      <!-- Alert 1 -->
      <rect width="280" height="35" rx="5" fill="#f8f9fa"/>
      <circle cx="15" cy="17" r="6" fill="#27ae60"/>
      <text x="30" y="22" fill="#2c3e50" font-size="12" font-family="Arial">AAPL position above target allocation</text>
      
      <!-- Alert 2 -->
      <g transform="translate(0,40)">
        <rect width="280" height="35" rx="5" fill="#f8f9fa"/>
        <circle cx="15" cy="17" r="6" fill="#e74c3c"/>
        <text x="30" y="22" fill="#2c3e50" font-size="12" font-family="Arial">Bond yield threshold reached</text>
      </g>
    </g>
  </g>

  <!-- Animation Styles -->
  <style>
    @keyframes pulse {
      0% { opacity: 0.7; }
      50% { opacity: 1; }
      100% { opacity: 0.7; }
    }
    .alert-pulse {
      animation: pulse 2s ease-in-out infinite;
    }
  </style>
</svg>