<svg xmlns="http://www.w3.org/2000/svg" viewBox="0 0 600 400">
    <!-- Background -->
    <rect width="600" height="400" fill="#f8fafc" rx="10"/>

    <!-- Laptop Base -->
    <path d="M100 280 L500 280 L520 320 L80 320 Z" fill="#091C99"/>
    <rect x="150" y="120" width="300" height="160" fill="#1e40af" rx="10"/>
    <rect x="160" y="130" width="280" height="140" fill="#ffffff" rx="5"/>

    <!-- Website Elements on Screen -->
    <rect x="180" y="150" width="100" height="20" fill="#e2e8f0" rx="3"/>
    <rect x="180" y="180" width="240" height="10" fill="#cbd5e1" rx="2"/>
    <rect x="180" y="200" width="200" height="10" fill="#cbd5e1" rx="2"/>
    <rect x="180" y="220" width="80" height="30" fill="#091C99" rx="4"/>

    <!-- Floating Elements -->
    <circle cx="450" cy="150" r="30" fill="#f472b6" opacity="0.8"/>
    <rect x="420" y="200" width="60" height="60" fill="#60a5fa" opacity="0.8" rx="8" transform="rotate(15)"/>
    <path d="M90 180 L120 150 L150 180 L120 210 Z" fill="#34d399" opacity="0.8"/>

    <!-- Code Elements -->
    <rect x="480" y="100" width="80" height="120" fill="#1e293b" opacity="0.9" rx="5"/>
    <rect x="490" y="110" width="60" height="8" fill="#94a3b8" rx="2"/>
    <rect x="490" y="125" width="40" height="8" fill="#60a5fa" rx="2"/>
    <rect x="490" y="140" width="50" height="8" fill="#94a3b8" rx="2"/>

    <!-- Mobile Device -->
    <rect x="40" y="150" width="80" height="140" fill="#1e40af" rx="8"/>
    <rect x="45" y="155" width="70" height="130" fill="#ffffff" rx="6"/>
    <rect x="55" y="165" width="50" height="30" fill="#e2e8f0" rx="4"/>
    <rect x="55" y="205" width="50" height="10" fill="#cbd5e1" rx="2"/>
    <rect x="55" y="225" width="50" height="10" fill="#cbd5e1" rx="2"/>
</svg>