<?xml version="1.0" standalone="no"?>
<!DOCTYPE svg PUBLIC "-//W3C//DTD SVG 20010904//EN"
 "http://www.w3.org/TR/2001/REC-SVG-20010904/DTD/svg10.dtd">
<svg version="1.0" xmlns="http://www.w3.org/2000/svg"
 width="192.000000pt" height="192.000000pt" viewBox="0 0 192.000000 192.000000"
 preserveAspectRatio="xMidYMid meet">
<g transform="translate(0.000000,192.000000) scale(0.100000,-0.100000)"
fill="#091C99" stroke="none">
<path d="M775 1885 c-316 -58 -582 -287 -702 -605 -51 -134 -67 -342 -39 -500
48 -269 244 -532 487 -655 146 -74 272 -104 439 -104 223 0 418 66 585 199
233 186 354 440 354 740 0 167 -29 292 -104 440 -122 243 -384 437 -655 486
-93 17 -272 16 -365 -1z m370 -80 c258 -55 510 -289 607 -565 44 -124 33 -315
-27 -461 -148 -365 -603 -569 -937 -421 -166 73 -315 228 -408 425 -60 124
-75 192 -74 332 0 137 17 212 70 320 135 276 464 434 769 370z"/>
<path d="M1119 1478 c-23 -35 -83 -150 -135 -256 -99 -205 -175 -332 -197
-332 -19 0 -53 40 -132 150 -128 181 -181 212 -256 151 -23 -18 -23 -18 29 -8
48 10 53 9 78 -14 42 -39 97 -142 180 -337 42 -101 84 -186 92 -190 41 -15 90
60 187 290 96 228 139 311 178 344 29 24 30 24 49 7 11 -10 53 -85 94 -168
106 -218 192 -304 319 -319 l50 -6 -47 13 c-127 36 -188 135 -288 462 -75 245
-90 275 -137 275 -18 0 -33 -15 -64 -62z"/>
</g>
</svg>
