<svg viewBox="0 0 800 600" xmlns="http://www.w3.org/2000/svg">
    <defs>
        <!-- Card and Element Gradients -->
        <linearGradient id="card-gradient" x1="0%" y1="0%" x2="100%" y2="100%">
            <stop offset="0%" style="stop-color:#ffffff;stop-opacity:0.15" />
            <stop offset="100%" style="stop-color:#ffffff;stop-opacity:0.05" />
        </linearGradient>
        <linearGradient id="accent-gradient" x1="0%" y1="0%" x2="100%" y2="0%">
            <stop offset="0%" style="stop-color:#c7d2fe" />
            <stop offset="100%" style="stop-color:#93c5fd" />
        </linearGradient>
        <linearGradient id="chart-gradient" x1="0%" y1="0%" x2="0%" y2="100%">
            <stop offset="0%" style="stop-color:#c7d2fe;stop-opacity:0.5" />
            <stop offset="100%" style="stop-color:#c7d2fe;stop-opacity:0.1" />
        </linearGradient>
    </defs>

    <!-- Main Dashboard Container -->
    <rect x="40" y="40" width="720" height="520" rx="16" 
          fill="url(#card-gradient)" 
          stroke="#ffffff" stroke-opacity="0.2" />

    <!-- Top Bar with Actions -->
    <g transform="translate(60,60)">
        <!-- Navigation Pills -->
        <rect width="120" height="36" rx="18" 
              fill="#ffffff" fill-opacity="0.2" />
        <rect x="130" width="120" height="36" rx="18" 
              fill="#ffffff" fill-opacity="0.1" />
        <rect x="260" width="120" height="36" rx="18" 
              fill="#ffffff" fill-opacity="0.1" />
        
        <!-- Action Buttons -->
        <circle cx="620" cy="18" r="18" 
                fill="#ffffff" fill-opacity="0.2" />
        <circle cx="670" cy="18" r="18" 
                fill="#ffffff" fill-opacity="0.2" />
    </g>

    <!-- Main Content Area -->
    <g transform="translate(60,120)">
        <!-- Large Stats Card -->
        <g>
            <rect width="440" height="200" rx="16" 
                  fill="url(#card-gradient)" 
                  stroke="#ffffff" stroke-opacity="0.2" />
            
            <!-- Chart -->
            <path d="M 40 150 L 120 90 L 200 120 L 280 60 L 360 90 L 400 30" 
                  stroke="url(#accent-gradient)" 
                  stroke-width="3" 
                  fill="none" />
            <path d="M 40 150 L 120 90 L 200 120 L 280 60 L 360 90 L 400 30 L 400 180 L 40 180 Z" 
                  fill="url(#chart-gradient)" />
            
            <!-- Data Points -->
            <circle cx="120" cy="90" r="4" fill="#ffffff" />
            <circle cx="200" cy="120" r="4" fill="#ffffff" />
            <circle cx="280" cy="60" r="4" fill="#ffffff" />
            <circle cx="360" cy="90" r="4" fill="#ffffff" />
        </g>

        <!-- Side Stats -->
        <g transform="translate(460,0)">
            <!-- Top Card -->
            <rect width="260" height="95" rx="16" 
                  fill="url(#card-gradient)" 
                  stroke="#ffffff" stroke-opacity="0.2" />
            <!-- Bottom Card -->
            <rect y="105" width="260" height="95" rx="16" 
                  fill="url(#card-gradient)" 
                  stroke="#ffffff" stroke-opacity="0.2" />
        </g>
    </g>

    <!-- Bottom Section -->
    <g transform="translate(60,340)">
        <!-- Activity Cards -->
        <rect width="230" height="180" rx="16" 
              fill="url(#card-gradient)" 
              stroke="#ffffff" stroke-opacity="0.2" />
        <rect x="245" width="230" height="180" rx="16" 
              fill="url(#card-gradient)" 
              stroke="#ffffff" stroke-opacity="0.2" />
        <rect x="490" width="230" height="180" rx="16" 
              fill="url(#card-gradient)" 
              stroke="#ffffff" stroke-opacity="0.2" />
        
        <!-- Card Content Indicators -->
        <g fill="#ffffff" fill-opacity="0.6">
            <!-- Card 1 Content -->
            <rect x="20" y="40" width="190" height="2" />
            <rect x="20" y="60" width="140" height="2" />
            <rect x="20" y="80" width="170" height="2" />
            
            <!-- Card 2 Content -->
            <rect x="265" y="40" width="190" height="2" />
            <rect x="265" y="60" width="140" height="2" />
            <rect x="265" y="80" width="170" height="2" />
            
            <!-- Card 3 Content -->
            <rect x="510" y="40" width="190" height="2" />
            <rect x="510" y="60" width="140" height="2" />
            <rect x="510" y="80" width="170" height="2" />
        </g>
    </g>

    <!-- Decorative Elements -->
    <g fill="#ffffff" fill-opacity="0.1">
        <circle cx="730" cy="40" r="40" />
        <circle cx="40" cy="560" r="60" />
    </g>
</svg>