<svg xmlns="http://www.w3.org/2000/svg" viewBox="0 0 400 300">
    <!-- Background -->
    <rect width="400" height="300" fill="#f8fafc"/>

    <!-- Shield Base -->
    <path d="M150 50 L250 50 L250 200 L200 250 L150 200 Z" fill="#2563eb"/>
    <path d="M160 60 L240 60 L240 190 L200 230 L160 190 Z" fill="#ffffff"/>

    <!-- Security Elements -->
    <circle cx="200" cy="140" r="30" fill="#2563eb"/>
    <rect x="190" y="120" width="20" height="40" fill="#ffffff" rx="4"/>
    <circle cx="200" cy="120" r="8" fill="#ffffff"/>

    <!-- Network Protection Lines -->
    <path d="M100 100 Q200 80, 300 100" fill="none" stroke="#94a3b8" stroke-width="2" stroke-dasharray="4,4"/>
    <path d="M100 150 Q200 130, 300 150" fill="none" stroke="#94a3b8" stroke-width="2" stroke-dasharray="4,4"/>
    <path d="M100 200 Q200 180, 300 200" fill="none" stroke="#94a3b8" stroke-width="2" stroke-dasharray="4,4"/>

    <!-- Security Icons -->
    <circle cx="100" cy="100" r="10" fill="#ef4444"/>
    <circle cx="300" cy="150" r="10" fill="#10b981"/>
    <circle cx="100" cy="200" r="10" fill="#f59e0b"/>
</svg>