<svg xmlns="http://www.w3.org/2000/svg" viewBox="80 0 40 40" width="60" height="60">
    <!-- Background circle -->
    <circle cx="100" cy="20" r="18" fill="#a386ff" opacity="0.1"/>
    
    <!-- Grid lines vertical -->
    <!-- <line x1="85" y1="5" x2="85" y2="35" stroke="#81F554" stroke-width="0.5" opacity="0.3"/> -->
    <!-- <line x1="90" y1="5" x2="90" y2="35" stroke="#81F554" stroke-width="0.5" opacity="0.3"/> -->
    <line x1="95" y1="12" x2="95" y2="29" stroke="#81F554" stroke-width="0.5"/>
    <line x1="100" y1="12" x2="100" y2="29" stroke="#81F554" stroke-width="0.5"/>
    <line x1="105" y1="12" x2="105" y2="29" stroke="#81F554" stroke-width="0.5"/>
    <!-- <line x1="110" y1="5" x2="110" y2="35" stroke="#81F554" stroke-width="0.5" opacity="0.3"/> -->
    <!-- <line x1="115" y1="5" x2="115" y2="35" stroke="#81F554" stroke-width="0.5" opacity="0.3"/> -->
    
    <!-- Grid lines horizontal -->
    <!-- <line x1="85" y1="5" x2="115" y2="5" stroke="#81F554" stroke-width="0.5" opacity="0.3"/> -->
    <!-- <line x1="85" y1="10" x2="115" y2="10" stroke="#81F554" stroke-width="0.5" opacity="0.3"/> -->
    <line x1="90" y1="16" x2="110" y2="16" stroke="#81F554" stroke-width="0.6"/>
    <line x1="90" y1="20" x2="110" y2="20" stroke="#81F554" stroke-width="0.6"/>
    <line x1="90" y1="24" x2="110" y2="24" stroke="#81F554" stroke-width="0.6"/>
    <!-- <line x1="85" y1="30" x2="115" y2="30" stroke="#81F554" stroke-width="0.5" opacity="0.3"/> -->
    <!-- <line x1="85" y1="35" x2="115" y2="35" stroke="#81F554" stroke-width="0.5" opacity="0.3"/> -->
    
    <!-- Original rectangle -->
    <rect x="90" y="12" width="20" height="16" fill="none" stroke="#81F554" stroke-width="2" rx="2"/>
    
    <!-- Original line -->
    <!-- <line x1="90" y1="16" x2="110" y2="16" stroke="#81F554" stroke-width="2"/> -->
</svg>